<?xml version="1.0" encoding="utf-8"?>
<svg xmlns="http://www.w3.org/2000/svg" width="60" height="60" viewBox="0 0 60 60" fill="none">
<path fill-rule="evenodd" clip-rule="evenodd" d="M14.9982 49V36.837C14.1187 36.481 13.2781 36.049 12.4844 35.5493L3.766 44.2677L0.230469 40.7322L8.7123 32.2504C6.39356 29.4741 4.99818 25.9 4.99818 22C4.99818 13.1634 12.1616 6 20.9982 6C23.5085 6 25.8838 6.57811 27.9982 7.60847V0H45.9982V22H58.9982V49H14.9982ZM32.9982 11.4167V5H40.9982V44H32.9982V32.5833C35.4876 29.7628 36.9982 26.0578 36.9982 22C36.9982 17.9422 35.4876 14.2372 32.9982 11.4167ZM27.9982 36.3915V44H19.9982V37.9693C20.3289 37.9897 20.6623 38 20.9982 38C23.5085 38 25.8838 37.4219 27.9982 36.3915ZM53.9982 27H45.9982V44H53.9982V27ZM9.99818 22C9.99818 28.0751 14.923 33 20.9982 33C27.0733 33 31.9982 28.0751 31.9982 22C31.9982 15.9249 27.0733 11 20.9982 11C14.923 11 9.99818 15.9249 9.99818 22Z" fill="#0044FF"/>
<path d="M58.9982 57V52H14.9982V57H58.9982Z" fill="#0044FF"/>
</svg>